REM DIRINDEX 1\4,1\2\5,1\2\6,1\3\7,1\3\8
REM DIRNAME cjc124,folder01,folder02,folder03,folder04,folder05,folder06,folder07
TITLE ""
FILE "076_Day38_Check3_Sentences.mp3" MP3
  TRACK 01 AUDIO
    TITLE "0:"
    INDEX 01 00:00:00
  TRACK 02 AUDIO
    TITLE "4:cjc124_2478"
    INDEX 01 00:00:25
  TRACK 03 AUDIO
    TITLE "0:"
    INDEX 01 00:02:00
  TRACK 04 AUDIO
    TITLE "7:cjc124_2479"
    INDEX 01 00:02:45
  TRACK 05 AUDIO
    TITLE "0:"
    INDEX 01 00:05:42
  TRACK 06 AUDIO
    TITLE "8:cjc124_2480"
    INDEX 01 00:05:56
  TRACK 07 AUDIO
    TITLE "0:"
    INDEX 01 00:07:52
  TRACK 08 AUDIO
    TITLE "7:cjc124_2481"
    INDEX 01 00:08:15
  TRACK 09 AUDIO
    TITLE "0:"
    INDEX 01 00:10:35
  TRACK 10 AUDIO
    TITLE "8:cjc124_2482"
    INDEX 01 00:10:51
  TRACK 11 AUDIO
    TITLE "0:"
    INDEX 01 00:13:24
  TRACK 12 AUDIO
    TITLE "7:cjc124_2483"
    INDEX 01 00:13:65
  TRACK 13 AUDIO
    TITLE "0:"
    INDEX 01 00:17:21
  TRACK 14 AUDIO
    TITLE "8:cjc124_2484"
    INDEX 01 00:17:39
  TRACK 15 AUDIO
    TITLE "0:"
    INDEX 01 00:19:67
  TRACK 16 AUDIO
    TITLE "7:cjc124_2485"
    INDEX 01 00:20:30
  TRACK 17 AUDIO
    TITLE "0:"
    INDEX 01 00:22:38
  TRACK 18 AUDIO
    TITLE "8:cjc124_2486"
    INDEX 01 00:22:54
  TRACK 19 AUDIO
    TITLE "0:"
    INDEX 01 00:24:63
  TRACK 20 AUDIO
    TITLE "7:cjc124_2487"
    INDEX 01 00:25:25
  TRACK 21 AUDIO
    TITLE "0:"
    INDEX 01 00:29:58
  TRACK 22 AUDIO
    TITLE "8:cjc124_2488"
    INDEX 01 00:30:01
  TRACK 23 AUDIO
    TITLE "0:"
    INDEX 01 00:33:30
  TRACK 24 AUDIO
    TITLE "7:cjc124_2489"
    INDEX 01 00:33:66
  TRACK 25 AUDIO
    TITLE "0:"
    INDEX 01 00:37:08
  TRACK 26 AUDIO
    TITLE "8:cjc124_2490"
    INDEX 01 00:37:24
  TRACK 27 AUDIO
    TITLE "0:"
    INDEX 01 00:40:42
  TRACK 28 AUDIO
    TITLE "7:cjc124_2491"
    INDEX 01 00:41:04
  TRACK 29 AUDIO
    TITLE "0:"
    INDEX 01 00:44:22
  TRACK 30 AUDIO
    TITLE "8:cjc124_2492"
    INDEX 01 00:44:34
  TRACK 31 AUDIO
    TITLE "0:"
    INDEX 01 00:46:66
  TRACK 32 AUDIO
    TITLE "7:cjc124_2493"
    INDEX 01 00:47:27
  TRACK 33 AUDIO
    TITLE "0:"
    INDEX 01 00:49:70
  TRACK 34 AUDIO
    TITLE "8:cjc124_2494"
    INDEX 01 00:50:09
  TRACK 35 AUDIO
    TITLE "0:"
    INDEX 01 00:52:24
  TRACK 36 AUDIO
    TITLE "7:cjc124_2495"
    INDEX 01 00:52:61
  TRACK 37 AUDIO
    TITLE "0:"
    INDEX 01 00:55:16
  TRACK 38 AUDIO
    TITLE "8:cjc124_2496"
    INDEX 01 00:55:32
  TRACK 39 AUDIO
    TITLE "0:"
    INDEX 01 00:57:29
  TRACK 40 AUDIO
    TITLE "7:cjc124_2497"
    INDEX 01 00:57:66
  TRACK 41 AUDIO
    TITLE "0:"
    INDEX 01 01:00:64
  TRACK 42 AUDIO
    TITLE "8:cjc124_2498"
    INDEX 01 01:01:09
  TRACK 43 AUDIO
    TITLE "0:"
    INDEX 01 01:03:29
  TRACK 44 AUDIO
    TITLE "7:cjc124_2499"
    INDEX 01 01:03:65
  TRACK 45 AUDIO
    TITLE "0:"
    INDEX 01 01:06:63
  TRACK 46 AUDIO
    TITLE "8:cjc124_2500"
    INDEX 01 01:07:04
  TRACK 47 AUDIO
    TITLE "0:"
    INDEX 01 01:09:61
  TRACK 48 AUDIO
    TITLE "7:cjc124_2501"
    INDEX 01 01:10:26
  TRACK 49 AUDIO
    TITLE "0:"
    INDEX 01 01:14:57
  TRACK 50 AUDIO
    TITLE "8:cjc124_2502"
    INDEX 01 01:14:72
  TRACK 51 AUDIO
    TITLE "0:"
    INDEX 01 01:18:35
  TRACK 52 AUDIO
    TITLE "7:cjc124_2503"
    INDEX 01 01:18:72
  TRACK 53 AUDIO
    TITLE "0:"
    INDEX 01 01:21:10
  TRACK 54 AUDIO
    TITLE "8:cjc124_2504"
    INDEX 01 01:21:39
  TRACK 55 AUDIO
    TITLE "0:"
    INDEX 01 01:23:32
  TRACK 56 AUDIO
    TITLE "7:cjc124_2505"
    INDEX 01 01:23:69
  TRACK 57 AUDIO
    TITLE "0:"
    INDEX 01 01:26:68
  TRACK 58 AUDIO
    TITLE "8:cjc124_2506"
    INDEX 01 01:27:06
  TRACK 59 AUDIO
    TITLE "0:"
    INDEX 01 01:30:54
  TRACK 60 AUDIO
    TITLE "7:cjc124_2507"
    INDEX 01 01:31:14
  TRACK 61 AUDIO
    TITLE "0:"
    INDEX 01 01:34:52
  TRACK 62 AUDIO
    TITLE "8:cjc124_2508"
    INDEX 01 01:35:02
  TRACK 63 AUDIO
    TITLE "0:"
    INDEX 01 01:37:05
  TRACK 64 AUDIO
    TITLE "7:cjc124_2509"
    INDEX 01 01:37:40
  TRACK 65 AUDIO
    TITLE "0:"
    INDEX 01 01:40:58
  TRACK 66 AUDIO
    TITLE "8:cjc124_2510"
    INDEX 01 01:40:72
  TRACK 67 AUDIO
    TITLE "0:"
    INDEX 01 01:44:54
